Coordinates
version=1
nRows=13
nColumns=18
inDegrees=yes

Units are S.I. units (second, meters, Newtons, ...)
Angles are in degrees.

endheader
time	ground_thorax_rot_x	ground_thorax_rot_y	ground_thorax_rot_z	ground_thorax_tx	ground_thorax_ty	ground_thorax_tz	clav_prot	clav_elev	scapula_abduction	scapula_elevation	scapula_upward_rot	scapula_winging	plane_elv	shoulder_elv	axial_rot	elbow_flexion	pro_sup
      0.00000000	      1.53411972	     -3.54101010	     -9.14118777	     -0.00423131	      0.00403036	     -0.00078352	    -22.32353181	     -6.33143437	    -13.84512208	     -4.48404004	      8.92347452	      7.07397548	    -34.95657768	     17.80441492	     48.35045831	      0.00000000	     34.32000000
      0.01000000	      1.55413500	     -3.40171361	     -9.19328619	     -0.00423131	      0.00403036	     -0.00078352	    -22.43351330	     -6.39918939	    -14.15378792	     -4.47385243	      8.67204076	      7.16429844	    -33.68028485	     18.24115211	     44.29025677	      0.00000000	     34.32000000
      0.02000000	      1.59673030	     -3.35216989	     -9.17211115	     -0.00423131	      0.00403036	     -0.00078352	    -22.41601552	     -6.29288967	    -14.07896062	     -4.42571900	      8.80083296	      7.09466193	    -34.15145516	     18.11722270	     44.08027327	      0.00000000	     34.32000000
      0.03000000	      1.48994302	     -3.05029838	     -9.10877591	     -0.00423131	      0.00403036	     -0.00078352	    -22.71667238	     -6.28333437	    -14.61851671	     -4.42690339	      8.76588344	      7.11428181	    -34.65560154	     17.80733820	     46.16051477	      0.00000000	     34.32000000
      0.04000000	      1.58635685	     -3.22853351	     -9.11472187	     -0.00423131	      0.00403036	     -0.00078352	    -22.55146274	     -6.20542275	    -14.25608858	     -4.40549206	      8.94396136	      7.03600110	    -35.25131747	     17.59680561	     48.87740952	      0.00000000	     34.32000000
      0.05000000	      1.69542143	     -3.21577979	     -9.14200627	     -0.00423131	      0.00403036	     -0.00078352	    -22.58750582	     -6.06211580	    -14.23104409	     -4.35826517	      9.16837324	      6.93349006	    -35.32708131	     17.28200885	     50.93757924	      0.00000000	     34.32000000
      0.06000000	      1.44188667	     -3.41617183	     -9.04499842	     -0.00423131	      0.00403036	     -0.00078352	    -22.32672949	     -6.21977684	    -13.86994069	     -4.40037551	      8.93446309	      7.03191547	    -35.89897167	     17.29082982	     51.96467667	      0.00000000	     34.32000000
      0.07000000	      1.60456117	     -3.40558228	     -9.16402960	     -0.00423131	      0.00403036	     -0.00078352	    -22.41801518	     -6.19825121	    -13.96301312	     -4.42504657	      9.06427992	      6.99796516	    -35.43925494	     17.34065184	     51.31884323	      0.00000000	     34.32000000
      0.08000000	      1.64222459	     -3.44245678	     -9.17698674	     -0.00423131	      0.00403036	     -0.00078352	    -22.37614425	     -6.26147214	    -13.99993116	     -4.40781705	      8.83324786	      7.07367345	    -34.16392215	     17.86208807	     46.86542802	      0.00000000	     34.32000000
      0.09000000	      1.72797953	     -3.46577208	     -9.06063479	     -0.00423131	      0.00403036	     -0.00078352	    -22.31181880	     -6.14272204	    -13.80714713	     -4.36774290	      9.03648708	      6.97947755	    -34.96708685	     17.83844179	     47.09252030	      0.00000000	     34.32000000
      0.10000000	      1.59159176	     -3.38916980	     -9.11826367	     -0.00423131	      0.00403036	     -0.00078352	    -22.38850485	     -6.32260284	    -14.02159905	     -4.44880584	      8.80673969	      7.10237853	    -34.41676317	     18.01817127	     45.89188212	      0.00000000	     34.32000000
      0.11000000	      1.68098860	     -3.28779345	     -9.09368702	     -0.00423131	      0.00403036	     -0.00078352	    -22.54052114	     -6.13536483	    -14.15745793	     -4.39972907	      9.12275517	      6.96778043	    -35.85970473	     17.13800114	     54.85596783	      0.00000000	     34.32000000
      0.12000000	      1.58316859	     -3.36010309	     -9.09274642	     -0.00423131	      0.00403036	     -0.00078352	    -22.41595442	     -6.29780535	    -14.02096756	     -4.45889766	      8.90699105	      7.07087912	    -34.69284917	     18.04495731	     45.34359007	      0.00000000	     34.32000000
